<?xml version="1.0" encoding="utf-8"?>
<!-- Generator: Adobe Illustrator 18.0.0, SVG Export Plug-In . SVG Version: 6.00 Build 0)  -->
<!DOCTYPE svg PUBLIC "-//W3C//DTD SVG 1.1//EN" "http://www.w3.org/Graphics/SVG/1.1/DTD/svg11.dtd">
<svg version="1.1" id="Слой_1" xmlns="http://www.w3.org/2000/svg" xmlns:xlink="http://www.w3.org/1999/xlink" x="0px" y="0px"
	 viewBox="0 0 135 134.7" enable-background="new 0 0 135 134.7" xml:space="preserve">
<path d="M67.7,1c-36.5,0-66,29.5-66,66c0,36.5,29.5,66,66,66c36.5,0,66-29.5,66-66C133.7,30.6,104.2,1,67.7,1z M108.6,25.9
	c5.9,5.9,10.6,13.1,13.5,20.9l-7.5,2.8c-2.5-6.7-6.5-12.9-11.6-18L108.6,25.9z M67.6,9L67.6,9c8.5,0,16.7,1.8,24.3,5.3l-3.3,7.3
	C82,18.6,75,17,67.7,17l-0.1,0V9z M47.6,12.6l2.8,7.5c-6.7,2.5-12.9,6.5-18,11.6l-5.7-5.6C32.6,20.2,39.8,15.5,47.6,12.6z M9.7,67.1
	c0-8.5,1.8-16.6,5.3-24.3l7.3,3.4c-3,6.6-4.6,13.6-4.6,20.9l-7.2,0.1L9.7,67.1z M26.8,108c-5.9-5.9-10.5-13.1-13.4-20.9l7.5-2.8
	c2.5,6.7,6.5,12.9,11.6,18L26.8,108z M68,125h-0.2c-8.5,0-16.6-1.8-24.3-5.3l3.4-7.3c6.6,3,13.6,4.6,20.9,4.6H68V125z M88,121.4
	l-2.8-7.5c6.7-2.5,12.9-6.5,18-11.6l5.7,5.6C103,113.8,95.8,118.5,88,121.4z M120.5,91.1l-7.3-3.3c3-6.5,4.5-13.5,4.5-20.8l0-0.2h8
	V67C125.7,75.4,124,83.5,120.5,91.1z"/>
</svg>
